<svg xmlns="http://www.w3.org/2000/svg" width="450" height="450" viewBox="0 0 450 450"><rect width="100%" height="100%" fill="#DDDDDD"/><path fill="#999999" d="M97.41 230.34h13.2v-14.19q0-2.01.27-4.44l-13.47 18.63Zm19.65 0h5.46v4.29q0 .6-.39 1.03-.39.44-1.11.44h-3.96v10.59h-6.45V236.1h-18.3q-.75 0-1.32-.46-.57-.47-.72-1.16l-.78-3.75 20.55-27.45h7.02v27.06Zm20.7-20.31-1.53 9.03q1.44-.3 2.76-.43 1.32-.14 2.55-.14 3.42 0 6.03 1.02 2.61 1.02 4.38 2.82 1.77 1.8 2.67 4.22.9 2.41.9 5.2 0 3.45-1.22 6.3-1.21 2.85-3.37 4.88-2.16 2.02-5.11 3.13-2.96 1.11-6.44 1.11-2.04 0-3.87-.42t-3.43-1.12q-1.61-.71-2.98-1.63-1.36-.91-2.44-1.93l2.28-3.15q.72-1.02 1.89-1.02.75 0 1.53.48t1.79 1.05q1 .57 2.37 1.05 1.36.48 3.28.48 2.04 0 3.6-.66t2.6-1.84q1.03-1.19 1.55-2.82.53-1.64.53-3.56 0-3.54-2.06-5.53-2.05-2-6.07-2-3.09 0-6.33 1.14l-4.62-1.32 3.6-21.06h21.42v3.15q0 1.59-.99 2.58t-3.36.99h-11.91ZM192.15 225q0 5.67-1.22 9.86-1.21 4.18-3.36 6.91-2.14 2.73-5.07 4.07-2.92 1.33-6.31 1.33-3.39 0-6.29-1.33-2.89-1.34-5.02-4.07-2.13-2.73-3.33-6.91-1.2-4.19-1.2-9.86 0-5.7 1.2-9.87 1.2-4.17 3.33-6.9 2.13-2.73 5.02-4.06 2.9-1.34 6.29-1.34t6.31 1.34q2.93 1.33 5.07 4.06 2.15 2.73 3.36 6.9 1.22 4.17 1.22 9.87Zm-7.65 0q0-4.71-.69-7.8t-1.85-4.92q-1.15-1.83-2.65-2.57-1.5-.73-3.12-.73-1.59 0-3.08.73-1.48.74-2.62 2.57-1.14 1.83-1.81 4.92-.68 3.09-.68 7.8t.68 7.8q.67 3.09 1.81 4.92 1.14 1.83 2.62 2.57 1.49.73 3.08.73 1.62 0 3.12-.73 1.5-.74 2.65-2.57 1.16-1.83 1.85-4.92.69-3.09.69-7.8Zm55.29 11.76-3.93 3.87-10.17-10.17-10.26 10.23-3.93-3.87 10.26-10.29-9.78-9.78 3.9-3.9 9.78 9.78 9.72-9.72 3.96 3.9-9.75 9.75 10.2 10.2Zm25.98-6.42h13.2v-14.19q0-2.01.27-4.44l-13.47 18.63Zm19.65 0h5.46v4.29q0 .6-.39 1.03-.39.44-1.11.44h-3.96v10.59h-6.45V236.1h-18.3q-.75 0-1.32-.46-.57-.47-.72-1.16l-.78-3.75 20.55-27.45h7.02v27.06Zm20.7-20.31-1.53 9.03q1.44-.3 2.76-.43 1.32-.14 2.55-.14 3.42 0 6.03 1.02 2.61 1.02 4.38 2.82 1.77 1.8 2.67 4.22.9 2.41.9 5.2 0 3.45-1.22 6.3-1.21 2.85-3.37 4.88-2.16 2.02-5.12 3.13-2.95 1.11-6.43 1.11-2.04 0-3.87-.42t-3.44-1.12q-1.6-.71-2.97-1.63-1.36-.91-2.44-1.93l2.28-3.15q.72-1.02 1.89-1.02.75 0 1.53.48t1.78 1.05q1.01.57 2.37 1.05 1.37.48 3.29.48 2.04 0 3.6-.66t2.59-1.84q1.04-1.19 1.56-2.82.53-1.64.53-3.56 0-3.54-2.06-5.53-2.05-2-6.07-2-3.09 0-6.33 1.14l-4.62-1.32 3.6-21.06h21.42v3.15q0 1.59-.99 2.58t-3.36.99h-11.91ZM360.51 225q0 5.67-1.22 9.86-1.21 4.18-3.36 6.91-2.14 2.73-5.07 4.07-2.92 1.33-6.31 1.33-3.39 0-6.29-1.33-2.89-1.34-5.02-4.07-2.13-2.73-3.33-6.91-1.2-4.19-1.2-9.86 0-5.7 1.2-9.87 1.2-4.17 3.33-6.9 2.13-2.73 5.02-4.06 2.9-1.34 6.29-1.34t6.31 1.34q2.93 1.33 5.07 4.06 2.15 2.73 3.36 6.9 1.22 4.17 1.22 9.87Zm-7.65 0q0-4.71-.69-7.8t-1.85-4.92q-1.15-1.83-2.65-2.57-1.5-.73-3.12-.73-1.59 0-3.08.73-1.48.74-2.62 2.57-1.14 1.83-1.82 4.92-.67 3.09-.67 7.8t.67 7.8q.68 3.09 1.82 4.92 1.14 1.83 2.62 2.57 1.49.73 3.08.73 1.62 0 3.12-.73 1.5-.74 2.65-2.57 1.16-1.83 1.85-4.92.69-3.09.69-7.8Z"/></svg>